Normalized EMG Linear Envelopes
nRows=143
nColumns=4

endheader
time	 med_gas_r	  soleus_r	 tib_ant_r	
6.3871	  0.055974	  0.357463	  0.049024	
6.42036	  0.056079	  0.354725	  0.049113	
6.45363	  0.055828	  0.350998	  0.049363	
6.4869	  0.055232	  0.345924	  0.049636	
6.52016	  0.054372	  0.341642	  0.049878	
6.55343	  0.053307	  0.339266	  0.050200	
6.58669	  0.052089	  0.338241	  0.050715	
6.61996	  0.050995	  0.337707	  0.051370	
6.65323	  0.050316	  0.338083	  0.051946	
6.68649	  0.050250	  0.340325	  0.052325	
6.71976	  0.050819	  0.345393	  0.052574	
6.75302	  0.051884	  0.352615	  0.052872	
6.78629	  0.053198	  0.359318	  0.053265	
6.81956	  0.054498	  0.364722	  0.053567	
6.85282	  0.055493	  0.368838	  0.053601	
6.88609	  0.055994	  0.371092	  0.053264	
6.91935	  0.055957	  0.370495	  0.052645	
6.95262	  0.055503	  0.367256	  0.052020	
6.98589	  0.054664	  0.362703	  0.051731	
7.01915	  0.053516	  0.356692	  0.051904	
7.05242	  0.052329	  0.349216	  0.052454	
7.08569	  0.051554	  0.342507	  0.053163	
7.11895	  0.051425	  0.339796	  0.053835	
7.15222	  0.051740	  0.341669	  0.054296	
7.18548	  0.052207	  0.345770	  0.054498	
7.21875	  0.052654	  0.350170	  0.054472	
7.25202	  0.053002	  0.355688	  0.054217	
7.28528	  0.053348	  0.362033	  0.053734	
7.31855	  0.054096	  0.367341	  0.052971	
7.35181	  0.055626	  0.369883	  0.052065	
7.38508	  0.058238	  0.369935	  0.051199	
7.41835	  0.062206	  0.369575	  0.050482	
7.45161	  0.067571	  0.372688	  0.049975	
7.48488	  0.073944	  0.381819	  0.049661	
7.51815	  0.080307	  0.396820	  0.049478	
7.55141	  0.085667	  0.416202	  0.049530	
7.58468	  0.089767	  0.438785	  0.049966	
7.61794	  0.093700	  0.462672	  0.050848	
7.65121	  0.098392	  0.487359	  0.052074	
7.68448	  0.103997	  0.511874	  0.053363	
7.71774	  0.109693	  0.530849	  0.054363	
7.75101	  0.114573	  0.538468	  0.054847	
7.78427	  0.118637	  0.538359	  0.054938	
7.81754	  0.121677	  0.537402	  0.054877	
7.85081	  0.123013	  0.540478	  0.054786	
7.88407	  0.122600	  0.547268	  0.054716	
7.91734	  0.121606	  0.554316	  0.054995	
7.9506	  0.121118	  0.561649	  0.056018	
7.98387	  0.121544	  0.571503	  0.058189	
8.01714	  0.123387	  0.583715	  0.061798	
8.0504	  0.126666	  0.594005	  0.066879	
8.08367	  0.130609	  0.594637	  0.073214	
8.11694	  0.134946	  0.580082	  0.080599	
8.1502	  0.139166	  0.557004	  0.088772	
8.18347	  0.143160	  0.534145	  0.096883	
8.21673	  0.146500	  0.515083	  0.103132	
8.25	  0.149421	  0.500254	  0.104994	
8.28327	  0.153566	  0.488767	  0.101925	
8.31653	  0.159891	  0.479230	  0.096880	
8.3498	  0.168162	  0.472007	  0.092439	
8.38306	  0.176776	  0.470715	  0.089898	
8.41633	  0.184389	  0.475253	  0.089723	
8.4496	  0.191037	  0.482197	  0.091655	
8.48286	  0.196427	  0.486557	  0.094773	
8.51613	  0.198306	  0.487548	  0.097069	
8.5494	  0.195103	  0.483570	  0.096942	
8.58266	  0.188746	  0.472648	  0.095849	
8.61593	  0.181011	  0.459718	  0.095374	
8.64919	  0.172942	  0.448329	  0.096370	
8.68246	  0.165244	  0.437143	  0.098751	
8.71573	  0.158359	  0.426658	  0.101418	
8.74899	  0.152750	  0.419146	  0.102242	
8.78226	  0.148564	  0.415266	  0.099082	
8.81552	  0.145322	  0.416362	  0.093095	
8.84879	  0.143813	  0.426125	  0.086823	
8.88206	  0.144746	  0.446120	  0.082213	
8.91532	  0.148623	  0.475273	  0.080414	
8.94859	  0.154526	  0.508981	  0.081950	
8.98185	  0.160786	  0.540495	  0.086773	
9.01512	  0.166233	  0.563534	  0.094095	
9.04839	  0.170777	  0.572812	  0.102346	
9.08165	  0.174597	  0.572803	  0.108895	
9.11492	  0.178260	  0.569327	  0.111194	
9.14819	  0.181358	  0.565568	  0.110568	
9.18145	  0.183068	  0.563743	  0.109103	
9.21472	  0.183575	  0.567977	  0.108094	
9.24798	  0.183719	  0.578963	  0.107816	
9.28125	  0.183759	  0.591989	  0.106934	
9.31452	  0.183198	  0.601816	  0.103539	
9.34778	  0.181877	  0.605659	  0.099023	
9.38105	  0.180183	  0.602758	  0.095526	
9.41431	  0.179147	  0.592417	  0.094289	
9.44758	  0.179184	  0.578257	  0.095802	
9.48085	  0.180608	  0.562916	  0.100201	
9.51411	  0.183155	  0.544713	  0.106958	
9.54738	  0.185950	  0.521654	  0.114433	
9.58065	  0.188082	  0.498266	  0.119790	
9.61391	  0.189643	  0.477346	  0.120432	
9.64718	  0.190552	  0.460286	  0.118178	
9.68044	  0.190564	  0.449529	  0.115886	
9.71371	  0.189802	  0.446058	  0.115123	
9.74698	  0.188243	  0.449188	  0.115778	
9.78024	  0.186019	  0.455419	  0.115946	
9.81351	  0.182791	  0.459646	  0.112795	
9.84677	  0.178395	  0.459000	  0.106948	
9.88004	  0.173436	  0.453405	  0.100495	
9.91331	  0.169196	  0.442846	  0.094927	
9.94657	  0.165878	  0.430795	  0.090922	
9.97984	  0.164179	  0.423893	  0.088830	
10.0131	  0.164285	  0.425096	  0.089024	
10.0464	  0.165779	  0.434760	  0.091489	
10.0796	  0.168326	  0.451048	  0.095711	
10.1129	  0.170974	  0.471617	  0.100589	
10.1462	  0.172535	  0.492266	  0.103880	
10.1794	  0.172606	  0.506486	  0.102861	
10.2127	  0.171449	  0.513736	  0.098013	
10.246	  0.168472	  0.517069	  0.091824	
10.2792	  0.162877	  0.514429	  0.085899	
10.3125	  0.155403	  0.503486	  0.081090	
10.3458	  0.148265	  0.483292	  0.077886	
10.379	  0.143136	  0.458357	  0.076986	
10.4123	  0.140378	  0.433546	  0.078740	
10.4456	  0.139993	  0.411034	  0.082987	
10.4788	  0.142569	  0.392407	  0.089024	
10.5121	  0.148571	  0.378584	  0.095656	
10.5454	  0.156796	  0.370336	  0.101473	
10.5786	  0.165034	  0.366792	  0.104704	
10.6119	  0.172245	  0.367477	  0.103520	
10.6452	  0.177137	  0.371465	  0.099215	
10.6784	  0.178436	  0.376953	  0.094310	
10.7117	  0.175970	  0.383278	  0.090695	
10.745	  0.171173	  0.389680	  0.089218	
10.7782	  0.165007	  0.396222	  0.090296	
10.8115	  0.158742	  0.403985	  0.094014	
10.8448	  0.153424	  0.412747	  0.099940	
10.878	  0.150203	  0.423367	  0.106944	
10.9113	  0.150165	  0.435509	  0.112631	
10.9446	  0.153646	  0.446637	  0.114161	
10.9778	  0.161156	  0.454214	  0.110070	
11.0111	  0.172592	  0.456913	  0.102843	
11.0444	  0.186392	  0.454636	  0.094972	
11.0776	  0.200344	  0.448548	  0.087866	
11.1109	  0.211787	  0.440571	  0.082023	
